{"accessors" : [{"bufferView" : 0, "byteOffset" : 0, "componentType" : 5123, "count" : 15246, "type" : "SCALAR", "max" : [14826], "min" : [0]}, {"bufferView" : 1, "byteOffset" : 0, "componentType" : 5126, "count" : 14827, "type" : "VEC3", "max" : [2.124656915664673, 1.9312490224838257, 1.9481120109558105], "min" : [-2.0359790325164795, 0.05303800106048584, -2.056041955947876], "name" : "POSITION"}, {"bufferView" : 1, "byteOffset" : 12, "componentType" : 5126, "count" : 14827, "type" : "VEC2", "max" : [0.9898480176925659, 0.9999949932098389], "min" : [0, -0], "name" : "TEXCOORD_0"}, {"bufferView" : 1, "byteOffset" : 20, "componentType" : 5126, "count" : 14827, "type" : "VEC3", "max" : [0.9999064803123474, 0.9998145699501038, 0.9997985363006592], "min" : [-0.9998465776443481, -0.9999927282333374, -0.999986469745636], "name" : "NORMAL"}], "asset" : {"generator" : "Aspose.3D 23.11.1", "version" : "2.0"}, "buffers" : [{"uri" : "data:application/octet-stream;base64,", "byteLength" : 518372}], "bufferViews" : [{"buffer" : 0, "byteOffset" : 0, "byteLength" : 30492, "target" : 34963}, {"buffer" : 0, "byteOffset" : 30496, "byteLength" : 487872, "byteStride" : 32, "target" : 34962}], "meshes" : [{"primitives" : [{"attributes" : {"POSITION" : 1, "TEXCOORD_0" : 2, "NORMAL" : 3}, "indices" : 0, "mode" : 4}], "name" : ""}], "nodes" : [{"mesh" : 0, "name" : "knuckles"}], "scene" : 0, "scenes" : [{"nodes" : [0]}]}