{"accessors" : [{"bufferView" : 0, "byteOffset" : 0, "componentType" : 5123, "count" : 15246, "type" : "SCALAR", "max" : [14826], "min" : [0]}, {"bufferView" : 1, "byteOffset" : 0, "componentType" : 5126, "count" : 14827, "type" : "VEC3", "max" : [1.9609990119934082, 0.9391059875488281, 1.9205750226974487], "min" : [-2.1996641159057617, -0.9391059875488281, -2.084510087966919], "name" : "POSITION"}, {"bufferView" : 1, "byteOffset" : 12, "componentType" : 5126, "count" : 14827, "type" : "VEC2", "max" : [0.9898480176925659, 0.9999949932098389], "min" : [0, -0], "name" : "TEXCOORD_0"}, {"bufferView" : 1, "byteOffset" : 20, "componentType" : 5126, "count" : 14827, "type" : "VEC3", "max" : [0.9998958110809326, 0.9998146891593933, 0.9998129606246948], "min" : [-0.9998597502708435, -0.9999927282333374, -0.9999905228614807], "name" : "NORMAL"}], "asset" : {"generator" : "Aspose.3D 23.11.1", "version" : "2.0"}, "buffers" : [{"uri" : "data:application/octet-stream;base64,", "byteLength" : 518372}], "bufferViews" : [{"buffer" : 0, "byteOffset" : 0, "byteLength" : 30492, "target" : 34963}, {"buffer" : 0, "byteOffset" : 30496, "byteLength" : 487872, "byteStride" : 32, "target" : 34962}], "meshes" : [{"primitives" : [{"attributes" : {"POSITION" : 1, "TEXCOORD_0" : 2, "NORMAL" : 3}, "indices" : 0, "mode" : 4}], "name" : ""}], "nodes" : [{"mesh" : 0, "name" : "single_knuckle_website:knuckles"}], "scene" : 0, "scenes" : [{"nodes" : [0]}]}